<?xml version="1.0" encoding="UTF-8"?>
<svg version="1.1" xmlns="http://www.w3.org/2000/svg" width="1536" height="1024">
<path d="M0 0 C506.88 0 1013.76 0 1536 0 C1536 337.92 1536 675.84 1536 1024 C1029.12 1024 522.24 1024 0 1024 C0 686.08 0 348.16 0 0 Z " fill="#F9F1E6" transform="translate(0,0)"/>
<path d="M0 0 C0.85147614 -0.00627411 1.70295227 -0.01254822 2.58023071 -0.01901245 C3.50911102 -0.02023102 4.43799133 -0.02144958 5.39501953 -0.02270508 C6.35975189 -0.02698517 7.32448425 -0.03126526 8.31845093 -0.03567505 C11.4716242 -0.0457388 14.6246456 -0.04571371 17.77783203 -0.04223633 C18.84948608 -0.04129974 19.92114014 -0.04036316 21.02526855 -0.03939819 C47.20715545 0.01042485 72.23400949 1.62264381 97.90283203 7.14526367 C98.69608887 7.3128418 99.4893457 7.48041992 100.30664062 7.65307617 C129.46774796 13.93659257 160.97051488 26.64973336 179.01220703 51.58666992 C179.90283203 53.14526367 179.90283203 53.14526367 179.90283203 55.14526367 C178.32750117 56.01410073 176.74218694 56.86485435 175.15283203 57.70776367 C173.83025391 58.42125977 173.83025391 58.42125977 172.48095703 59.14916992 C169.90283203 60.14526367 169.90283203 60.14526367 167.86376953 60.08666992 C165.06052139 58.74088745 163.38754051 56.7949005 161.27783203 54.52026367 C123.15907809 15.51502708 52.1686361 16.2178371 3.90283203 15.14526367 C3.90283203 108.20526367 3.90283203 201.26526367 3.90283203 297.14526367 C19.41283203 297.14526367 34.92283203 297.14526367 50.90283203 297.14526367 C69.06184173 298.49828792 86.23895828 300.99121014 103.90283203 305.14526367 C105.44304326 305.49099965 106.98339776 305.83609828 108.52392578 306.18041992 C116.7039752 308.05766906 124.31081413 310.56251365 131.90283203 314.14526367 C132.52689941 314.43949219 133.1509668 314.7337207 133.79394531 315.03686523 C142.51821662 319.18485009 150.99349442 323.56140652 158.90283203 329.14526367 C159.89476562 329.74274414 159.89476562 329.74274414 160.90673828 330.35229492 C162.9905439 331.8752619 163.85105657 332.76037363 164.90283203 335.14526367 C165.38944263 340.53006445 165.24843712 345.75638439 164.90283203 351.14526367 C163.82646484 350.8797168 162.75009766 350.61416992 161.64111328 350.34057617 C144.14697036 346.0837754 127.03343693 344.02975741 109.01220703 343.90698242 C107.80966782 343.89723389 106.6071286 343.88748535 105.3681488 343.87744141 C101.46303417 343.85240692 97.5580118 343.83897811 93.65283203 343.83276367 C92.98244022 343.8314658 92.31204842 343.83016792 91.62134171 343.82883072 C53.93895251 343.77372442 16.75755576 347.1454807 -20.58154297 352.09448242 C-21.27489243 352.18600586 -21.96824188 352.2775293 -22.68260193 352.37182617 C-26.18462568 352.84602748 -29.63712446 353.42920473 -33.09716797 354.14526367 C-37.79511837 354.64365493 -41.13896394 354.63340535 -45.40966797 352.45776367 C-49.30553969 349.10550196 -52.13959214 346.26740061 -53.09716797 341.14526367 C-53.18932004 339.48089295 -53.22974286 337.81329535 -53.23418236 336.14638138 C-53.2392569 335.13316606 -53.24433144 334.11995074 -53.24955976 333.07603192 C-53.25005752 331.96476524 -53.25055527 330.85349856 -53.25106812 329.70855713 C-53.25545037 328.52655377 -53.25983262 327.34455041 -53.26434767 326.12672877 C-53.2754049 322.84475051 -53.28195779 319.56279914 -53.28652883 316.28080654 C-53.29249098 312.74148536 -53.30409914 309.20218168 -53.31481934 305.66287231 C-53.33932691 297.11567773 -53.35396685 288.56847737 -53.3668794 280.02125847 C-53.37059214 277.60705441 -53.37456529 275.19285092 -53.37863207 272.77864742 C-53.40386631 257.78487788 -53.42591805 242.79110741 -53.43836021 227.79732132 C-53.44128987 224.32541144 -53.44425154 220.8535016 -53.44726562 217.3815918 C-53.44801168 216.518674 -53.44875773 215.65575621 -53.44952638 214.76668939 C-53.46218246 200.78518931 -53.49541021 186.80381633 -53.53706746 172.82237568 C-53.57948957 158.46653203 -53.60305544 144.11075346 -53.60828078 129.75484729 C-53.61169427 121.69503161 -53.62344237 113.63541467 -53.65638351 105.57566071 C-53.68438884 98.71237235 -53.69538124 91.8493235 -53.68418805 84.98598245 C-53.67900281 81.48511146 -53.68187845 77.984742 -53.70665359 74.48394394 C-53.72927234 70.68551109 -53.72108178 66.88834342 -53.70516968 63.08990479 C-53.71905177 61.98756099 -53.73293385 60.88521719 -53.74723661 59.74946904 C-53.67756182 53.00308866 -52.62422946 48.29855689 -48.09716797 43.14526367 C-42.92745333 39.11288626 -39.13917086 38.03347191 -32.67919922 37.82885742 C-30.7987793 37.76601563 -30.7987793 37.76601563 -28.88037109 37.7019043 C-27.57003906 37.66258789 -26.25970703 37.62327148 -24.90966797 37.58276367 C-23.57436818 37.53955375 -22.23908144 37.49593867 -20.90380859 37.4519043 C-17.635035 37.34569866 -14.36618464 37.2436537 -11.09716797 37.14526367 C-11.12335205 36.23236572 -11.14953613 35.31946777 -11.17651367 34.37890625 C-11.26195339 30.97754023 -11.32451796 27.57732109 -11.37182617 24.17529297 C-11.39690441 22.70570842 -11.43097653 21.2362478 -11.47436523 19.76708984 C-11.53532296 17.64934686 -11.56344113 15.53325791 -11.58544922 13.41479492 C-11.6116333 12.14224854 -11.63781738 10.86970215 -11.66479492 9.55859375 C-10.95029519 5.26206867 -9.42602009 3.85013222 -6.09716797 1.14526367 C-3.81495646 0.00415792 -2.53597356 0.01295698 0 0 Z " fill="#456845" transform="translate(568.09716796875,305.854736328125)"/>
<path d="M0 0 C1.38224762 -0.00163147 1.38224762 -0.00163147 2.79241943 -0.0032959 C5.46325598 -0.00293872 8.13388627 0.00627622 10.8046875 0.01953125 C11.99106812 0.02135155 11.99106812 0.02135155 13.20141602 0.02320862 C30.13394961 0.16245937 30.13394961 0.16245937 35.125 4.1875 C36.61179725 7.16109449 36.23612605 9.85049179 36.22265625 13.1640625 C36.22053383 14.19193375 36.22053383 14.19193375 36.21836853 15.24057007 C36.21276675 17.43125761 36.20021406 19.6218433 36.1875 21.8125 C36.18248522 23.29687352 36.17792228 24.78124865 36.17382812 26.265625 C36.16279677 29.90628315 36.14553099 33.54688164 36.125 37.1875 C36.93130859 37.1968457 37.73761719 37.20619141 38.56835938 37.21582031 C42.25450585 37.2698104 45.93942241 37.35340448 49.625 37.4375 C51.52765625 37.45876953 51.52765625 37.45876953 53.46875 37.48046875 C61.98089692 37.70213924 68.37510763 38.24024487 74.5 44.6875 C77.11062475 48.70384576 78.37429263 51.35447888 78.38506222 56.20199966 C78.39212781 57.21869838 78.3991934 58.2353971 78.4064731 59.28290486 C78.40405802 60.39806249 78.40164293 61.51322012 78.39915466 62.66217041 C78.40439134 63.84825732 78.40962802 65.03434423 78.41502339 66.25637317 C78.42744475 69.54981702 78.43086654 72.84304749 78.43042648 76.13650012 C78.43207402 79.68810146 78.4451394 83.23966386 78.45661926 86.79124451 C78.47947376 94.55782546 78.48739041 102.32437909 78.49244571 110.09098911 C78.49570233 114.94081848 78.50222462 119.79063991 78.5094471 124.64046478 C78.52901394 138.06917185 78.54541755 151.49787154 78.54832363 164.92659378 C78.5485112 165.78601567 78.54869877 166.64543757 78.54889202 167.53090255 C78.54925827 169.27315283 78.54962197 171.01540311 78.54998314 172.75765339 C78.55016595 173.6225057 78.55034876 174.48735801 78.55053711 175.37841797 C78.55080793 176.67728058 78.55080793 176.67728058 78.55108423 178.00238284 C78.55462567 192.03238861 78.58164576 206.06224087 78.619035 220.09219339 C78.6571179 234.49776497 78.67648111 248.90326039 78.67678314 263.30888343 C78.67736773 271.39663471 78.68586062 279.48420289 78.71478081 287.57190704 C78.73929456 294.45899438 78.74657778 301.34583185 78.73153328 308.23295102 C78.72436408 311.74596502 78.72522123 315.25848564 78.74794388 318.77144432 C78.76832159 322.58302676 78.75789876 326.39332954 78.73973083 330.20489502 C78.7529308 331.31112976 78.76613077 332.41736451 78.77973074 333.55712152 C78.7055667 340.36546327 77.595824 344.94240907 73.125 350.1875 C68.85331632 354.0708488 65.97523376 354.41704758 60.50244141 354.32080078 C57.00957405 354.12495917 53.61566756 353.53413872 50.1875 352.875 C-8.50883481 342.45553228 -75.20883782 336.78226083 -133.60449219 349.76025391 C-135.875 350.1875 -135.875 350.1875 -138.875 350.1875 C-140.07006463 337.44014395 -140.07006463 337.44014395 -137.55078125 332.69140625 C-135.46835451 330.52166602 -133.36339009 328.87900384 -130.875 327.1875 C-129.91851563 326.52492188 -128.96203125 325.86234375 -127.9765625 325.1796875 C-105.70244282 310.71525917 -79.98388448 303.7073707 -53.875 300.1875 C-52.35036133 299.96537842 -52.35036133 299.96537842 -50.79492188 299.73876953 C-26.67219924 296.3037589 -3.51992692 297.1875 21.125 297.1875 C21.125 204.1275 21.125 111.0675 21.125 15.1875 C-62.20962132 15.42562785 -62.20962132 15.42562785 -135.43310547 53.78149414 C-136.79508258 55.22764356 -138.11771656 56.71055613 -139.4375 58.1953125 C-141.875 60.1875 -141.875 60.1875 -144.41796875 60.12109375 C-146.76013116 59.23114651 -148.9697162 58.29027623 -151.1875 57.125 C-151.88488281 56.76277344 -152.58226562 56.40054688 -153.30078125 56.02734375 C-153.82027344 55.75019531 -154.33976563 55.47304688 -154.875 55.1875 C-144.46602534 33.41019818 -119.59483448 21.66565979 -98.125 13.5 C-66.53427977 2.77786489 -33.12083673 0.02131922 0 0 Z " fill="#446744" transform="translate(942.875,305.8125)"/>
<path d="M0 0 C10.90159308 5.52125337 18.22422215 13.07280958 22.72236633 24.47575378 C25.66420249 33.88204981 25.68253983 43.70251399 25.67578125 53.4609375 C25.67968328 54.86756513 25.68402095 56.27419161 25.68876648 57.68081665 C25.69616948 60.61049236 25.69598092 63.54004744 25.69067383 66.46972656 C25.68488628 70.18319978 25.7018217 73.89617306 25.7250185 77.60956383 C25.73990706 80.50962096 25.74060729 83.40956183 25.73750877 86.30965042 C25.73825634 88.3310797 25.75199909 90.35249124 25.76618958 92.37387085 C25.68405109 109.00993521 22.4373518 123.08825796 10.83203125 135.3671875 C7.04242726 138.75312938 3.07711063 140.72351874 -1.625 142.5625 C-2.34300781 142.87960937 -3.06101562 143.19671875 -3.80078125 143.5234375 C-13.49490283 147.38690826 -23.79251657 146.28006384 -33.48046875 142.953125 C-44.37387843 138.13566681 -52.25975792 130.22749909 -56.68504333 119.20085144 C-60.30077741 109.05189716 -61.08935678 99.11171168 -61.05859375 88.41796875 C-61.06317411 86.99514014 -61.06848504 85.57231372 -61.07447815 84.14949036 C-61.08333838 81.18705178 -61.08106938 78.22488376 -61.07104492 75.26245117 C-61.05958141 71.5142902 -61.07976216 67.76707519 -61.10896206 64.0190382 C-61.12754001 61.08541687 -61.1269891 58.15201311 -61.12132454 55.21834755 C-61.12117385 53.83880604 -61.12700255 52.45924727 -61.13961601 51.07976341 C-61.25729122 36.10337022 -59.00920622 20.81460257 -48.625 9.35546875 C-35.86806776 -2.92307853 -16.47891653 -6.57703174 0 0 Z " fill="#466A45" transform="translate(785.625,370.4375)"/>
<path d="M0 0 C1.03688965 0.01047363 2.0737793 0.02094727 3.14208984 0.03173828 C4.26357422 0.03818359 5.38505859 0.04462891 6.54052734 0.05126953 C7.71615234 0.06802734 8.89177734 0.08478516 10.10302734 0.10205078 C11.87806641 0.11558594 11.87806641 0.11558594 13.68896484 0.12939453 C16.61885257 0.15302266 19.54834075 0.18596564 22.47802734 0.22705078 C22.4804157 1.51087489 22.48280405 2.794699 22.48526478 4.11742687 C22.54260884 34.58410361 22.6153281 65.05070043 22.70701363 95.51729171 C22.71828196 99.26616614 22.72942039 103.01504095 22.74047852 106.76391602 C22.7426822 107.51025816 22.74488588 108.2566003 22.74715634 109.02555887 C22.78254102 121.11457466 22.80739854 133.2035904 22.82837436 145.2926388 C22.85012711 157.69459054 22.88317249 170.09647499 22.9267289 182.49836951 C22.95325475 190.15270262 22.97094323 197.80695187 22.97737338 205.46132866 C22.98324465 211.32799743 23.00481777 217.19454201 23.03230286 223.0611515 C23.04111585 225.46981101 23.04479896 227.87849543 23.04303551 230.28717041 C23.04139057 233.56994005 23.05801597 236.85212215 23.07929993 240.1348114 C23.07445235 241.09298427 23.06960477 242.05115713 23.0646103 243.03836554 C23.13081563 249.20488288 23.99679966 252.7458231 28.47802734 257.22705078 C30.9146662 257.43832884 33.24585833 257.52871191 35.68505859 257.53564453 C37.21818561 257.55840445 38.75130717 257.58153374 40.28442383 257.60498047 C41.09885956 257.61412476 41.91329529 257.62326904 42.75241089 257.63269043 C85.0371596 258.16348048 129.04654527 260.69362787 168.47802734 277.22705078 C165.3860334 278.25771543 163.92184326 278.22688538 160.74365234 277.90039062 C159.7892627 277.80867584 158.83487305 277.71696106 157.8515625 277.62246704 C156.8207959 277.52033905 155.7900293 277.41821106 154.72802734 277.31298828 C142.62601588 276.21686236 130.62518759 275.83085003 118.47802734 275.85205078 C117.44685791 275.8515976 116.41568848 275.85114441 115.35327148 275.85067749 C91.60679312 275.88078389 68.08270214 277.76929208 44.47802734 280.22705078 C43.75425903 280.30157471 43.03049072 280.37609863 42.28479004 280.45288086 C30.49989894 281.67129832 18.78139264 283.16566983 7.12695312 285.31323242 C3.17861311 286.02835807 -0.51681797 286.27678454 -4.52197266 286.22705078 C-4.56771032 250.08117871 -4.60297161 213.93531171 -4.62410332 177.78941668 C-4.62660485 173.52595222 -4.62919348 169.26248781 -4.63183594 164.99902344 C-4.63236056 164.15021346 -4.63288518 163.30140349 -4.6334257 162.426872 C-4.64213784 148.66744599 -4.65791225 134.90803662 -4.67627825 121.1486205 C-4.69495482 107.03927705 -4.70608462 92.92994234 -4.71014965 78.82058704 C-4.71289937 70.10829703 -4.72159659 61.39605405 -4.73780559 52.68377851 C-4.74834482 46.71645801 -4.75158026 40.74916197 -4.74897541 34.78183283 C-4.74768932 31.33454916 -4.74971603 27.8873479 -4.76038361 24.44007874 C-4.77025502 20.70975146 -4.76797021 16.97962959 -4.76248169 13.2492981 C-4.76830737 12.15009446 -4.77413306 11.05089083 -4.78013527 9.918378 C-4.77615318 8.92511155 -4.77217108 7.93184511 -4.76806831 6.90847969 C-4.76882775 6.04651454 -4.76958719 5.18454939 -4.77036965 4.29646409 C-4.37714099 1.02044767 -3.19802923 0.28791551 0 0 Z " fill="#BFD096" transform="translate(534.52197265625,358.77294921875)"/>
<path d="M0 0 C4.1255669 0.10948106 8.25018878 0.24020225 12.375 0.375 C13.550625 0.4059375 14.72625 0.436875 15.9375 0.46875 C17.05898438 0.50742187 18.18046875 0.54609375 19.3359375 0.5859375 C20.89127197 0.63306885 20.89127197 0.63306885 22.47802734 0.68115234 C25 1 25 1 27 3 C27.24839699 5.06300128 27.24839699 5.06300128 27.24609566 7.66581154 C27.25007775 8.65559458 27.25405985 9.64537763 27.25816262 10.6651541 C27.25233693 11.76046678 27.24651125 12.85577947 27.24050903 13.98428345 C27.24221788 15.14163761 27.24392673 16.29899178 27.24568737 17.49141729 C27.24842062 20.71360336 27.24213758 23.93563013 27.23213124 27.15779734 C27.22351972 30.62882398 27.22641527 34.09984276 27.22793579 37.57087708 C27.2289861 43.58790486 27.22269427 49.60488938 27.21146011 55.62190628 C27.19522783 64.32156921 27.18999944 73.02121115 27.18748413 81.72088759 C27.18310345 95.83444474 27.16978425 109.94797882 27.15087891 124.06152344 C27.13252974 137.77408736 27.11836853 151.48664503 27.10986328 165.19921875 C27.10933783 166.04401305 27.10881239 166.88880735 27.10827102 167.75920148 C27.105661 171.99715234 27.10313357 176.23510324 27.10064721 180.47305417 C27.0799031 215.64871923 27.04466745 250.82435749 27 286 C23.90858279 286.84008293 21.71881975 287.01099903 18.53515625 286.546875 C17.66479736 286.42376953 16.79443848 286.30066406 15.89770508 286.17382812 C14.9620874 286.03396484 14.02646973 285.89410156 13.0625 285.75 C12.07596436 285.61013672 11.08942871 285.47027344 10.07299805 285.32617188 C5.41303457 284.66232337 0.75907076 283.96652 -3.890625 283.234375 C-20.10309889 280.72660655 -36.41978441 279.4597914 -52.76715088 278.18458557 C-54.4079169 278.04894643 -56.0475801 277.89979384 -57.6864624 277.74302673 C-65.43059742 277.02657774 -73.10804878 276.83914693 -80.8828125 276.83203125 C-82.17710175 276.82870285 -83.47139099 276.82537445 -84.80490112 276.82194519 C-87.52944778 276.81600684 -90.25396297 276.81409968 -92.97851562 276.81469727 C-95.73216346 276.81477832 -98.48564421 276.80786051 -101.23925781 276.79418945 C-116.27020356 276.72054064 -131.10852992 276.75009034 -146 279 C-138.50060167 272.88917825 -128.16569162 271.0947396 -118.9375 268.9375 C-117.84840332 268.68000977 -116.75930664 268.42251953 -115.63720703 268.15722656 C-107.12230628 266.18155925 -98.60138212 264.53375727 -89.95117188 263.28369141 C-88.1473575 263.0214251 -86.34690241 262.73632719 -84.546875 262.44921875 C-63.02341034 259.23052712 -41.16688191 258.74637306 -19.44311523 258.34155273 C-18.64634872 258.3253186 -17.84958221 258.30908447 -17.02867126 258.2923584 C-15.52977592 258.26233752 -14.03079527 258.23622516 -12.53175354 258.21472168 C-7.6203743 258.2881711 -7.6203743 258.2881711 -3 257 C-0.2927625 252.22464035 -0.71086401 247.15559308 -0.7215271 241.83183289 C-0.7128385 240.28184191 -0.7128385 240.28184191 -0.70397437 238.70053798 C-0.68695138 235.233514 -0.68409584 231.76662296 -0.68115234 228.29956055 C-0.67185577 225.81609266 -0.66168751 223.3326279 -0.65071106 220.84916687 C-0.6290335 215.5001022 -0.61342852 210.15107246 -0.60334396 204.80197716 C-0.58875295 197.06811129 -0.56321495 189.33431198 -0.53501268 181.60048518 C-0.48955236 169.05260345 -0.45293441 156.50471214 -0.421875 143.95678711 C-0.39168635 131.76829342 -0.35733463 119.57982319 -0.31738281 107.39135742 C-0.31492126 106.63994815 -0.31245972 105.88853889 -0.30992357 105.11435964 C-0.29754891 101.34472663 -0.28509239 97.57509389 -0.27259517 93.80546129 C-0.16903875 62.53700601 -0.07997903 31.2685249 0 0 Z " fill="#BED096" transform="translate(979,358)"/>
<path d="M0 0 C2.1796875 1.4375 2.1796875 1.4375 4 4 C4.59427304 7.16024268 4.60042284 10.2910515 4.625 13.5 C4.67877653 15.30874339 4.73735329 17.11735058 4.80078125 18.92578125 C4.84452881 20.23603271 4.84452881 20.23603271 4.88916016 21.57275391 C5.57417467 36.57366647 12.01999144 51.54284899 23 62 C36.01598424 73.16883136 49.91741989 76.85439513 66.68310547 76.17919922 C79.82543636 75.16271124 93.04264694 68.640541 102 59 C104.53237916 55.78263303 106.79408253 52.44709866 109 49 C109.721875 47.948125 110.44375 46.89625 111.1875 45.8125 C116.9923166 34.90344812 117.50876696 23.12418672 117.49682617 11.03735352 C117.51386597 9.5415979 117.51386597 9.5415979 117.53125 8.015625 C117.52448242 6.67419434 117.52448242 6.67419434 117.51757812 5.30566406 C118 3 118 3 119.84179688 1.20996094 C122.77171377 -0.43264858 124.68838472 -0.41395191 128 0 C130.15649414 1.14868164 130.15649414 1.14868164 132 3 C132.50170898 5.72045898 132.50170898 5.72045898 132.49609375 8.99609375 C132.49673828 10.19556641 132.49738281 11.39503906 132.49804688 12.63085938 C132.47806641 13.88705078 132.45808594 15.14324219 132.4375 16.4375 C132.44458984 17.65888672 132.45167969 18.88027344 132.45898438 20.13867188 C132.32135057 40.03205061 125.02569435 57.05282748 111.5234375 71.51953125 C104.57448321 78.35015969 97.35015944 83.20676738 88.4375 87 C87.76589844 87.29092529 87.09429688 87.58185059 86.40234375 87.8815918 C80.29451135 90.30490367 76.04596091 90.3594581 69 91 C69 100.24 69 109.48 69 119 C76.19522782 118.9604134 76.19522782 118.9604134 83.39038086 118.90991211 C84.28120361 118.90741455 85.17202637 118.90491699 86.08984375 118.90234375 C87.00628662 118.89710693 87.92272949 118.89187012 88.86694336 118.88647461 C91 119 91 119 92 120 C92.0989294 122.16480797 92.129711 124.33293785 92.125 126.5 C92.12886719 128.27890625 92.12886719 128.27890625 92.1328125 130.09375 C92 133 92 133 91 134 C89.13364212 134.0991056 87.26351806 134.12799261 85.39453125 134.12939453 C83.59761841 134.13412277 83.59761841 134.13412277 81.7644043 134.13894653 C80.46027588 134.1369223 79.15614746 134.13489807 77.8125 134.1328125 C76.47110985 134.1334856 75.12971981 134.13445568 73.78833008 134.13571167 C70.97378379 134.13718836 68.15926918 134.13503504 65.34472656 134.13037109 C61.72959369 134.12467381 58.11453505 134.12795297 54.49940491 134.13394356 C51.72855058 134.13754997 48.95771398 134.13641022 46.18685913 134.13381577 C44.20310417 134.13282033 42.21934853 134.13586741 40.2355957 134.13894653 C39.03765381 134.13579437 37.83971191 134.13264221 36.60546875 134.12939453 C35.54481201 134.12859894 34.48415527 134.12780334 33.39135742 134.12698364 C31 134 31 134 30 133 C29.9010706 130.83519203 29.870289 128.66706215 29.875 126.5 C29.87242187 125.3140625 29.86984375 124.128125 29.8671875 122.90625 C30 120 30 120 31 119 C32.63472882 118.91299658 34.27314055 118.89298937 35.91015625 118.90234375 C36.800979 118.90484131 37.69180176 118.90733887 38.60961914 118.90991211 C39.74906982 118.91901611 40.88852051 118.92812012 42.0625 118.9375 C47.4765625 118.9684375 47.4765625 118.9684375 53 119 C53 109.76 53 100.52 53 91 C50.36 91 47.72 91 45 91 C28.04339095 87.91964715 12.10527587 75.40765361 2 62 C-7.14645626 47.57375574 -11.13667788 31.34769506 -11.3125 14.375 C-11.34150391 13.43398438 -11.37050781 12.49296875 -11.40039062 11.5234375 C-11.46363277 4.67382637 -11.46363277 4.67382637 -9.19921875 1.3828125 C-5.95790386 -0.6552434 -3.74469989 -0.53495713 0 0 Z " fill="#466845" transform="translate(707,453)"/>
<path d="M0 0 C15.84 0 31.68 0 48 0 C48 29.04 48 58.08 48 88 C44.74775961 86.37387981 42.43271947 84.89304215 39.62890625 82.671875 C38.39624023 81.72054687 38.39624023 81.72054687 37.13867188 80.75 C35.41605323 79.41265239 33.70248875 78.06356299 31.99804688 76.703125 C30.76344727 75.75953125 30.76344727 75.75953125 29.50390625 74.796875 C28.75955322 74.21260742 28.0152002 73.62833984 27.24829102 73.02636719 C25.00788614 71.7220306 25.00788614 71.7220306 22.49072266 72.62158203 C19.99794163 74.00113914 17.86242987 75.47140097 15.64453125 77.2578125 C14.85755859 77.88300781 14.07058594 78.50820313 13.25976562 79.15234375 C12.45216797 79.80332031 11.64457031 80.45429687 10.8125 81.125 C9.1974926 82.42361335 7.57916701 83.71811444 5.95703125 85.0078125 C5.24522705 85.58160645 4.53342285 86.15540039 3.80004883 86.74658203 C2 88 2 88 0 88 C0 58.96 0 29.92 0 0 Z " fill="#456845" transform="translate(744,606)"/>
<path d="M0 0 C0.89074219 0.28101563 1.78148437 0.56203125 2.69921875 0.8515625 C5.23860724 1.70466947 7.72898716 2.62214443 10.1875 3.6875 C6.91828124 4.77723959 5.04891078 4.65387028 1.64453125 4.34765625 C0.57138672 4.25419922 -0.50175781 4.16074219 -1.60742188 4.06445312 C-3.28674805 3.90879883 -3.28674805 3.90879883 -5 3.75 C-6.13115234 3.65009766 -7.26230469 3.55019531 -8.42773438 3.44726562 C-11.22320135 3.19956602 -14.0180228 2.94608963 -16.8125 2.6875 C-16.8125 2.3575 -16.8125 2.0275 -16.8125 1.6875 C-13.5125 1.6875 -10.2125 1.6875 -6.8125 1.6875 C-6.8125 1.0275 -6.8125 0.3675 -6.8125 -0.3125 C-4.06163109 -1.68793445 -2.89329274 -0.91526952 0 0 Z " fill="#B0C58C" transform="translate(692.8125,632.3125)"/>
<path d="M0 0 C0.66 0 1.32 0 2 0 C2.22328552 3.02038922 2.42901467 6.04031711 2.625 9.0625 C2.68945312 9.91005859 2.75390625 10.75761719 2.8203125 11.63085938 C3.14768288 16.93016735 2.78150476 20.98866791 1 26 C0.67 26 0.34 26 0 26 C0 17.42 0 8.84 0 0 Z " fill="#D9D3B3" transform="translate(839,457)"/>
<path d="M0 0 C0.66 0.66 1.32 1.32 2 2 C1.38125 2.556875 0.7625 3.11375 0.125 3.6875 C-2.06106379 6.06645178 -2.98785699 7.96357096 -4 11 C-4.75 9.375 -4.75 9.375 -5 7 C-3.50594347 4.4601039 -2.09462345 2.09462345 0 0 Z " fill="#4F6F4F" transform="translate(521,348)"/>
<path d="M0 0 C0 0.66 0 1.32 0 2 C-1.98 2.66 -3.96 3.32 -6 4 C-6.33 5.65 -6.66 7.3 -7 9 C-7.33 9 -7.66 9 -8 9 C-8 6.36 -8 3.72 -8 1 C-2.25 0 -2.25 0 0 0 Z " fill="#EEE6C8" transform="translate(784,543)"/>
</svg>
